<?xml version="1.0" encoding="utf-8"?>
<!-- Generator: Adobe Illustrator 16.0.4, SVG Export Plug-In . SVG Version: 6.00 Build 0)  -->
<!DOCTYPE svg PUBLIC "-//W3C//DTD SVG 1.1//EN" "http://www.w3.org/Graphics/SVG/1.1/DTD/svg11.dtd">
<svg version="1.1" xmlns="http://www.w3.org/2000/svg" xmlns:xlink="http://www.w3.org/1999/xlink" x="0px" y="0px"
	 width="65px" height="80px" viewBox="0 0 283.453 519.341" enable-background="new 0 0 283.453 519.341"
	 xml:space="preserve">
<g id="Layer_1">
</g>
<g id="Layer_2">
	<polygon fill="#FFFFFF" stroke="#3D95D2" stroke-miterlimit="10" points="40.603,241.034 0,140.442 42.419,40.603 143.011,0
		242.85,42.419 283.453,143.011 241.034,242.851 141.727,519.341 	"/>
</g>
<g id="Layer_3">
	<polygon fill="#3D95D2" points="52.482,224.78 16.247,137.061 52.874,49.958 140.909,14.496 228.782,51.447 265.017,139.166
		228.39,226.269 141.727,473.768 	"/>
</g>
<g id="Layer_8">
	<polygon opacity="0.6" fill="#1C75BC" points="265.017,139.166 228.331,226.361 225.914,233.482 133.789,194.876 174.144,99.533
		212.104,115.601 264.637,138.246 	"/>
</g>
<g id="Layer_6">
	<polygon fill="#FFFFFF" points="101.854,182.678 85.592,142.449 102.541,102.505 142.769,86.243 182.714,103.191 198.974,143.419
		182.028,183.363 141.799,199.625 	"/>
</g>
<g id="Layer_7">
	<polygon fill="#3D95D2" points="111.522,172.861 99.207,142.739 111.799,112.73 141.922,100.415 171.93,113.006 184.245,143.129
		171.654,173.138 141.531,185.454 	"/>
</g>
<g id="Layer_4">
	<g id="Layer_5">
	</g>
</g>
</svg>
