<?xml version="1.0" encoding="utf-8"?>
<!-- Generator: Adobe Illustrator 16.0.4, SVG Export Plug-In . SVG Version: 6.00 Build 0)  -->
<!DOCTYPE svg PUBLIC "-//W3C//DTD SVG 1.1//EN" "http://www.w3.org/Graphics/SVG/1.1/DTD/svg11.dtd">
<svg version="1.1" xmlns="http://www.w3.org/2000/svg" xmlns:xlink="http://www.w3.org/1999/xlink" x="0px" y="0px"
	 width="289.134px" height="521.575px" viewBox="0 0 289.134 521.575" enable-background="new 0 0 289.134 521.575"
	 xml:space="preserve">
<g id="Layer_2">
	<polygon fill="#FFFFFF" stroke="#3D95D2" stroke-miterlimit="10" points="43.752,241.93 3.149,141.338 45.568,41.498 146.16,0.896 
		245.999,43.314 286.603,143.906 244.184,243.746 144.876,520.236 	"/>
</g>
<g id="Layer_9">
	<polygon fill="#3D95D2" points="53.747,234.292 16.87,143.896 54.715,53.899 145.111,17.022 235.108,54.867 271.984,145.263 
		234.141,235.26 144.428,502.403 	"/>
</g>
<g id="Layer_8">
	<polygon opacity="0.6" fill="#1C75BC" points="271.907,144.222 232.271,237.845 136.483,197.305 177.56,100.256 217.423,117.129 
		269.809,139.132 	"/>
	<line fill="#2E3192" x1="269.964" y1="139.389" x2="272.084" y2="144.663"/>
</g>
<g id="Layer_6">
	<polygon fill="#FFFFFF" points="105.004,183.573 88.742,143.344 105.69,103.4 145.918,87.139 185.863,104.086 202.123,144.314 
		185.178,184.259 144.948,200.521 	"/>
</g>
<g id="Layer_7">
	<polygon fill="#3D95D2" points="114.672,173.757 102.356,143.634 114.948,113.626 145.071,101.31 175.079,113.902 187.395,144.025 
		174.804,174.033 144.681,186.349 	"/>
</g>
<g id="Layer_4">
	<g id="Layer_5">
	</g>
</g>
</svg>
